<?xml version="1.0" encoding="utf-8"?>
<!-- Generator: Adobe Illustrator 21.1.0, SVG Export Plug-In . SVG Version: 6.00 Build 0)  -->
<svg version="1.1" id="Ebene_1" xmlns="http://www.w3.org/2000/svg" xmlns:xlink="http://www.w3.org/1999/xlink" x="0px" y="0px"
	 viewBox="0 0 100 100" style="enable-background:new 0 0 100 100;" xml:space="preserve">
<style type="text/css">
	.st0{fill:#FFFFFF;}
	.st1{fill:#E4077E;}
</style>
<g>
	<path class="st0" d="M90.9,50.1c0-22.5-18.2-40.7-40.7-40.7S9.5,27.6,9.5,50.1c0,22.5,18.2,40.7,40.7,40.7S90.9,72.6,90.9,50.1z
		 M50.2,86.8c-20.2,0-36.6-16.4-36.6-36.6c0-20.2,16.4-36.6,36.6-36.6s36.6,16.4,36.6,36.6C86.9,70.4,70.4,86.8,50.2,86.8z"/>
	<path class="st1" d="M92.6,56.7c3.3-0.5,5.8-3.4,5.8-6.8c0-3.2-2.2-6-5.3-6.7c2.8-1.6,4.2-4.9,3.2-8.1c-1.1-3.3-4.3-5.2-7.6-4.7
		c2.4-2.2,2.9-6,1-8.8c-1.9-2.9-5.5-3.9-8.6-2.5c1.3-2.9,0.4-6.4-2.3-8.3c-2.4-1.7-5.5-1.7-7.9-0.1c-0.2-2.7-1.9-5.1-4.6-6.1
		c-3.5-1.2-7.2,0.5-8.6,3.9c-0.4-3.4-3.3-6.1-6.8-6.1c-3.3,0-6.1,2.4-6.7,5.5c-1.6-2.8-5.1-4.2-8.2-3.1c-1.8,0.6-3.2,1.9-3.9,3.5
		c-3.1-1.8-7.3-2.1-12.9,0C8.8,12.2,4.6,21.1,8.5,31.8c-1.2,0.8-2.1,2-2.5,3.5c-0.3,1-0.4,2-0.3,2.9c-2.9,2.1-5.9,6.5-5.8,15.9
		c0.1,8.6,4.6,13.2,10,15.2c0.5,0.2,1,0.4,1.5,0.5c0.3,0.1,0.6,0.2,0.9,0.2c-1.5,2.3-1.5,5.4,0.2,7.8c1.9,2.7,5.4,3.6,8.3,2.3
		c-1.4,3-0.4,6.7,2.5,8.6c2.8,1.9,6.5,1.4,8.8-1c-0.5,3.3,1.4,6.6,4.7,7.6c2.9,0.9,6.1-0.2,7.7-2.6c1,2.6,3.5,4.5,6.4,4.5
		c3.2,0,6-2.2,6.7-5.3c1.6,2.8,4.9,4.2,8.1,3.2c3.3-1.1,5.2-4.3,4.7-7.6c2.2,2.4,6,2.9,8.8,1c2.9-1.9,3.9-5.5,2.5-8.6
		c2.9,1.3,6.4,0.4,8.3-2.3c1.7-2.4,1.7-5.5,0.1-7.9c2.7-0.2,5.1-1.9,6.1-4.6C97.3,61.8,95.7,58.2,92.6,56.7z M50.2,9.4
		c19.1,0,35.2,13.2,39.5,30.9c-0.2-0.1-0.3-0.2-0.3-0.2l-4.2-0.8c-4.6-15-18.5-25.8-35-25.8c-4.5,0-8.8,0.8-12.8,2.3
		c-0.4-1.3-0.9-2.6-1.7-3.7C40.3,10.3,45.1,9.4,50.2,9.4z M50.2,90.8c-15.1,0-28.2-8.2-35.3-20.4c1.6,0.2,3.3,0.2,4.8,0
		c6.6,9.8,17.8,16.3,30.5,16.3c16.1,0,29.8-10.4,34.7-24.8c1.9-0.1,3.7-0.8,5-2.6C85.7,77.4,69.5,90.8,50.2,90.8z"/>
	<path class="st1" d="M94.2,8.3V6.6h0.7c0.4,0,0.7,0.1,0.8,0.2C95.9,7,96,7.2,96,7.4c0,0.6-0.4,0.9-1.1,0.9H94.2 M93.2,10.9h1.1V9.1
		h1.1l0.9,1.8h1.2l-1.2-2.1c0.3-0.1,0.5-0.3,0.7-0.6C97,8,97.1,7.7,97.1,7.4c0-0.6-0.2-1-0.6-1.3c-0.4-0.2-0.9-0.4-1.4-0.4h-1.9
		V10.9z M93.5,12.2c-0.5-0.2-0.9-0.5-1.2-0.8c-0.3-0.4-0.6-0.8-0.8-1.3c-0.2-0.5-0.3-1.1-0.3-1.7c0-0.6,0.1-1.1,0.3-1.7
		c0.2-0.5,0.5-0.9,0.8-1.3C92.6,5,93,4.8,93.5,4.6c0.5-0.2,1-0.3,1.5-0.3c0.5,0,1,0.1,1.5,0.3C97,4.8,97.4,5,97.7,5.4
		c0.3,0.4,0.6,0.8,0.8,1.3c0.2,0.5,0.3,1.1,0.3,1.7c0,0.6-0.1,1.2-0.3,1.7c-0.2,0.5-0.5,0.9-0.8,1.3c-0.3,0.4-0.7,0.6-1.2,0.8
		c-0.5,0.2-1,0.3-1.5,0.3C94.5,12.5,93.9,12.4,93.5,12.2z M96.9,13.1c0.6-0.2,1.1-0.6,1.5-1c0.4-0.4,0.8-1,1-1.6
		c0.3-0.6,0.4-1.3,0.4-2.1c0-0.8-0.1-1.4-0.4-2.1s-0.6-1.1-1-1.6c-0.4-0.4-0.9-0.8-1.5-1c-0.6-0.2-1.2-0.4-1.9-0.4
		c-0.7,0-1.3,0.1-1.9,0.4c-0.6,0.2-1.1,0.6-1.5,1c-0.4,0.4-0.8,1-1,1.6s-0.4,1.3-0.4,2.1c0,0.8,0.1,1.4,0.4,2.1
		c0.3,0.6,0.6,1.1,1,1.6c0.4,0.4,0.9,0.8,1.5,1c0.6,0.2,1.2,0.4,1.9,0.4C95.7,13.4,96.3,13.3,96.9,13.1z"/>
	<g>
		<path class="st0" d="M34,57.9c1.3-2.3,2.2-4.9,2.5-7.6c0.3-2.7,0.1-5.4-0.7-8.1c-0.8-2.7-2.2-5.1-4.1-7.4
			c-1.9-2.3-4.5-4.1-7.7-5.5c-2.6-1.1-4.4-2.5-5.6-4.1c-1.2-1.6-1.7-3.3-1.7-4.9c0-1.6,0.6-3,1.8-4.3c1.2-1.2,2.8-2,4.9-2.3
			c1.4-0.1,2.5,0,3.4,0.3c0.9,0.4,1.6,0.9,2,1.5c0.4,0.6,0.6,1.3,0.5,2.1c-0.1,0.8-0.4,1.5-0.9,2.2c-0.5,0.7-1.3,1.2-2.3,1.7
			c-1,0.4-2.3,0.6-3.8,0.5C22,22.6,22,23.3,22.1,24c0.2,0.7,0.6,1.4,1.1,2c0.6,0.6,1.3,1,2.2,1.2c0.9,0.3,1.9,0.2,3.1-0.1
			c1.9-0.5,3.3-1.3,4.3-2.5c1-1.1,1.6-2.4,1.9-3.8c0.3-1.4,0.2-2.8-0.3-4.1c-0.5-1.4-1.2-2.6-2.3-3.6c-1.1-1-2.4-1.8-4-2.2
			c-1.6-0.4-3.4-0.4-5.5,0.2c-2.5,0.7-4.6,1.7-6.3,3c-1.7,1.3-2.9,2.7-3.7,4.3c-0.8,1.6-1.2,3.3-1.2,5.1c0,1.8,0.4,3.5,1.2,5.2
			c0.8,1.7,1.9,3.2,3.4,4.6c1.5,1.4,3.4,2.6,5.6,3.5c2.2,0.9,3.9,2.1,5.3,3.7c1.3,1.6,2.3,3.4,2.9,5.4c0.6,2,0.7,4,0.6,6
			c-0.2,2.1-0.7,4-1.6,5.8c-0.9,1.8-2.1,3.3-3.6,4.5c-1.5,1.2-3.3,2-5.5,2.3c-2.1,0.3-3.9,0.1-5.5-0.5c-1.6-0.6-2.9-1.5-4-2.7
			C9.2,60.3,8.4,59,8,57.5c-0.5-1.5-0.7-2.9-0.6-4.3c0.1-1.4,0.5-2.7,1.1-3.8c0.6-1.1,1.6-1.9,2.9-2.3c0.8-0.3,1.6-0.4,2.4-0.3
			c0.8,0.1,1.5,0.4,2.1,0.9c0.6,0.4,1,1,1.3,1.8c0.3,0.7,0.3,1.6,0,2.5c1.4-0.3,2.4-0.9,3.2-1.8c0.7-0.9,1.2-1.9,1.4-3
			c0.2-1.1,0.1-2.2-0.2-3.3c-0.3-1.1-0.9-2.1-1.7-2.9c-0.8-0.8-1.8-1.4-3.1-1.8c-1.2-0.4-2.7-0.3-4.3,0.1c-2.5,0.7-4.5,1.9-6,3.7
			c-1.5,1.8-2.5,3.8-3,6c-0.5,2.2-0.5,4.5-0.1,6.9c0.4,2.3,1.4,4.4,2.8,6.3c1.4,1.8,3.3,3.3,5.6,4.3c2.3,1,5.1,1.3,8.3,0.8
			c3.2-0.5,6-1.5,8.3-3.2C30.8,62.2,32.6,60.2,34,57.9z"/>
		<path class="st0" d="M91.3,45c-0.6-0.9-1.6-1.5-3.1-1.8c-1.6-0.3-3-0.2-4.1,0.3c-1.1,0.5-1.8,1.3-2.3,2.2c-0.4,0.9-0.6,2-0.3,3.2
			c0.2,1.2,0.9,2.3,1.8,3.3c0.6,0.6,0.9,1.3,1,2c0.1,0.7,0,1.4-0.2,2c-0.3,0.6-0.7,1.1-1.2,1.4c-0.5,0.3-1.2,0.4-1.8,0.2
			c-0.6-0.2-0.9-0.5-1-1c0-0.5,0.1-0.9,0.3-1.2c0.3-0.4,0.6-0.6,1.1-0.6c0.5-0.1,1,0.2,1.4,0.9c0.3-0.5,0.4-1,0.4-1.5
			c-0.1-0.5-0.2-0.9-0.5-1.3c-0.3-0.4-0.7-0.7-1.1-1c-0.5-0.2-0.9-0.4-1.5-0.4c-0.5,0-1,0.1-1.5,0.4c-0.5,0.3-0.9,0.7-1.3,1.4
			c-0.3,0.5-0.5,1.1-0.4,1.7c0,0.6,0.2,1.2,0.5,1.8c0.3,0.6,0.7,1.1,1.3,1.5c0.5,0.4,1.2,0.7,1.9,0.8c1.6,0.3,3,0.2,4.2-0.3
			c1.2-0.5,2-1.3,2.6-2.3c0.5-1,0.7-2.1,0.5-3.3c-0.2-1.2-0.8-2.4-1.9-3.5c-0.6-0.6-1-1.2-1.1-1.9c-0.1-0.7,0-1.2,0.2-1.8
			c0.2-0.5,0.6-0.9,1.1-1.2c0.5-0.3,1-0.4,1.6-0.3c0.6,0.1,1,0.4,1.2,0.8c0.1,0.4,0.1,0.7-0.1,1c-0.2,0.3-0.5,0.5-1,0.6
			c-0.5,0.1-0.9-0.2-1.5-0.7c-0.5,0.8-0.6,1.4-0.3,2c0.3,0.6,0.8,1,1.4,1.3c0.6,0.2,1.3,0.3,2,0.1c0.7-0.2,1.3-0.7,1.8-1.6
			C91.9,46.9,91.9,45.9,91.3,45z"/>
		<path class="st0" d="M80.8,41.7l-4.1-0.5c-0.5,1.2-1,2.5-1.6,3.8c-0.5,1.1-1,2.3-1.5,3.6c-0.6,1.3-1.1,2.6-1.7,3.9
			c-0.3,0.5-0.6,1-1,1.4c-0.4,0.4-0.6,0.6-0.8,0.6c-0.2,0-0.4-0.2-0.3-0.6c0-0.3,0.3-1.1,0.7-2.2c0.2-0.6,0.6-1.4,1.1-2.6
			c0.5-1.2,1-2.4,1.5-3.6c0.6-1.4,1.2-2.9,1.9-4.5l-4-0.5l-4.6,10.7c-0.1,0.3-0.2,0.5-0.3,0.7L66,52c-0.4,0.8-0.9,1.3-1.4,1.6
			c-0.5,0.3-0.9,0.4-1.3,0.3c-0.2-0.1-0.4-0.3-0.5-0.6c-0.1-0.3,0.1-1,0.5-2.1c0.1-0.3,0.3-0.8,0.6-1.6c0.3-0.7,0.6-1.6,1-2.7
			c0.4-1,0.8-2.2,1.3-3.4c0.5-1.2,0.9-2.5,1.4-3.7c1.1-2.9,2.2-6.1,3.5-9.6l-4.1-0.3l-7.8,21c-0.1,0.3-0.2,0.5-0.3,0.7l-0.2,0
			c-0.4,0.8-0.8,1.3-1.3,1.6c-0.5,0.3-0.9,0.4-1.2,0.3c-0.2-0.1-0.4-0.3-0.5-0.6c-0.1-0.3,0.1-1,0.4-2.2c0.1-0.3,0.3-0.8,0.5-1.6
			c0.2-0.8,0.5-1.7,0.8-2.7c0.3-1.1,0.7-2.2,1.1-3.5c0.4-1.3,0.8-2.5,1.2-3.8c0.9-3,1.9-6.2,3-9.8l-4.1-0.1l-6.7,21.4
			C52,50.8,52,51,51.9,51.2l-0.4,0c-0.3,0.8-0.7,1.4-1.2,1.7c-0.5,0.4-0.9,0.5-1.2,0.4c-0.2,0-0.4-0.2-0.5-0.5c-0.1-0.3,0-1,0.2-2.2
			c0.1-0.6,0.3-1.5,0.6-2.7c0.3-1.2,0.5-2.4,0.8-3.6c0.3-1.4,0.6-3,1-4.6c-1-0.4-2.1-0.4-3.3-0.2c-1.2,0.2-2.4,0.7-3.5,1.4
			c-1.2,0.7-2.2,1.7-3.2,2.9c-1,1.2-1.8,2.6-2.3,4.3c-0.6,1.6-0.9,3-1.1,4.2c-0.2,1.2-0.2,2.2,0,2.9c0.1,0.8,0.4,1.3,0.8,1.6
			c0.4,0.3,0.9,0.5,1.5,0.4c0.8-0.1,1.6-0.4,2.4-0.9c0.8-0.5,1.5-1.1,2.1-1.9c0.1,1,0.5,1.6,1,1.8c0.5,0.3,1,0.4,1.6,0.4
			c0.4,0,0.8-0.2,1.3-0.4c0.5-0.2,1-0.5,1.5-1c0.5-0.4,0.9-1,1.4-1.7c0.2-0.3,0.4-0.7,0.5-1c-0.1,0.4-0.1,0.7-0.1,1
			c0,0.8,0.1,1.4,0.3,1.8c0.2,0.4,0.5,0.7,0.9,0.9c0.4,0.2,0.8,0.3,1.2,0.3c0.4,0,0.8-0.1,1.3-0.3c0.5-0.2,1-0.5,1.5-0.9
			c0.5-0.4,1-0.9,1.5-1.6c0.1-0.1,0.2-0.3,0.3-0.4c0,0.1,0,0.2,0,0.2c0,0.8,0,1.4,0.2,1.8c0.2,0.4,0.5,0.7,0.8,0.9
			c0.4,0.2,0.8,0.3,1.2,0.3c0.4,0,0.8,0,1.3-0.2c0.5-0.1,1-0.4,1.6-0.8c0.5-0.4,1.1-0.9,1.6-1.5c0.1-0.1,0.2-0.3,0.3-0.4
			c0,0.1,0,0.2,0,0.3c-0.1,0.8-0.1,1.4,0.1,1.8c0.2,0.4,0.4,0.8,0.8,1c0.4,0.2,0.7,0.3,1.2,0.4c1,0.1,1.9-0.3,2.8-1.2
			c-0.4,0.8-0.7,1.7-1.1,2.6c-0.4,0.9-0.8,1.8-1.2,2.6c-0.4,0.8-0.8,1.4-1.3,1.9c-0.4,0.5-0.9,0.7-1.4,0.6c-0.6-0.1-0.9-0.3-1-0.8
			c-0.1-0.5-0.1-0.9,0.1-1.3c0.2-0.4,0.5-0.7,1-0.9c0.5-0.2,1,0,1.6,0.5c0.5-0.8,0.6-1.5,0.2-2.1c-0.3-0.6-0.8-1.1-1.5-1.3
			c-0.7-0.2-1.4-0.2-2.2,0c-0.8,0.2-1.4,0.8-1.9,1.7c-0.3,0.6-0.5,1.2-0.4,1.8c0,0.6,0.2,1.1,0.5,1.6c0.3,0.5,0.7,0.9,1.3,1.2
			c0.6,0.3,1.3,0.6,2,0.6c1.2,0.1,2.2,0,3.1-0.4c0.9-0.4,1.8-1,2.5-1.8c0.7-0.8,1.4-1.7,2-2.8c0.6-1.1,1.2-2.2,1.7-3.5
			c0.7-1.5,1.4-3.2,2.1-4.9c0.7-1.7,1.4-3.3,2-4.8C79.3,45.1,80.1,43.4,80.8,41.7z M44.7,51c-0.1,0.6-0.2,1.1-0.3,1.5
			c-0.2,0.2-0.5,0.4-0.8,0.7c-0.3,0.3-0.7,0.4-1,0.4c-0.4,0-0.6-0.2-0.8-0.8c-0.1-0.5-0.1-1.3,0-2.1c0.1-0.9,0.3-1.8,0.6-2.8
			c0.3-1,0.6-1.9,1-2.8c0.4-0.9,0.8-1.6,1.3-2.2c0.5-0.6,0.9-0.9,1.4-0.9c0.2,0,0.4,0,0.5,0L44.7,51z"/>
		<path class="st0" d="M58,62.7c3.6,0,1.6-2.4-0.9-2.4c0,0-10.3-1.1-18.3,1.1c-4.8,1.3-5.1,5.3-9.4,6.8c0,0-0.9,1.8,11.6-3.3
			C49.4,61.4,56.9,62.7,58,62.7z"/>
	</g>
</g>
</svg>
